<?xml version="1.0" standalone="no"?>
<!DOCTYPE svg PUBLIC "-//W3C//DTD SVG 20010904//EN"
 "http://www.w3.org/TR/2001/REC-SVG-20010904/DTD/svg10.dtd">
<svg style="background-color:#FFFFFF" version="1.0" xmlns="http://www.w3.org/2000/svg"
 width="1024.000000pt" height="1024.000000pt" viewBox="0 0 1024.000000 1024.000000"
 preserveAspectRatio="xMidYMid meet">
<metadata>
Created by potrace 1.14, written by Peter Selinger 2001-2017
</metadata>
<g transform="translate(0.000000,1024.000000) scale(0.100000,-0.100000)"
 stroke="none">
<path fill="#2e7d32"  d="M0 5120 l0 -5120 5120 0 5120 0 0 5120 0 5120 -5120 0 -5120 0 0
-5120z m5620 4110 c173 -35 341 -100 510 -196 148 -85 357 -280 474 -443 68
-95 164 -280 196 -377 12 -38 25 -72 29 -76 3 -3 24 2 46 12 59 27 211 76 280
89 33 7 79 16 103 21 58 14 392 13 466 -1 101 -18 211 -46 238 -60 10 -5 25
-9 33 -9 8 0 23 -4 33 -9 9 -5 28 -13 42 -19 100 -40 337 -172 360 -201 3 -3
21 -18 40 -32 49 -37 167 -153 227 -224 266 -315 397 -734 358 -1140 -19 -193
-33 -258 -87 -405 -23 -62 -95 -213 -134 -280 -95 -163 -298 -376 -469 -490
-88 -58 -236 -137 -302 -162 -13 -4 -33 -12 -45 -17 -13 -5 -41 -15 -63 -22
-22 -6 -47 -15 -55 -19 -13 -6 -15 -174 -18 -1406 -1 -815 -6 -1400 -11 -1403
-5 -3 -1159 -5 -2565 -3 l-2556 2 0 1405 c0 1116 -3 1406 -12 1409 -254 66
-506 212 -698 405 -85 85 -230 268 -230 290 0 6 -3 11 -7 11 -5 0 -13 10 -19
23 -7 12 -30 58 -53 102 -22 44 -41 85 -41 91 0 5 -9 29 -20 52 -11 22 -20 46
-20 53 0 6 -9 39 -19 73 -69 218 -80 480 -30 731 37 189 119 388 223 545 79
120 103 148 226 270 115 115 278 234 392 288 112 52 137 62 203 83 39 12 79
25 90 29 11 4 45 13 75 18 30 6 79 15 108 21 70 14 389 14 466 0 111 -20 235
-52 304 -80 57 -23 78 -32 94 -40 20 -10 22 -8 44 57 47 140 150 333 234 438
170 214 346 356 593 478 43 21 81 38 86 38 5 0 30 9 57 19 96 37 241 71 359
85 97 10 362 -3 465 -24z m2248 -7260 c11 0 13 -46 10 -247 l-3 -248 -32 -65
c-38 -75 -79 -123 -143 -166 -56 -38 -89 -50 -164 -64 -82 -14 -4359 -14
-4442 0 -124 22 -241 105 -295 211 -42 83 -49 132 -49 361 0 195 2 217 17 220
11 2 4221 1 5101 -2z"/>
<path fill="#2e7d32" d="M5126 5703 c-7 -7 -9 -2737 -2 -2744 2 -2 90 -3 195 -1 l191 3 -2
1372 -3 1372 -186 2 c-103 1 -190 -1 -193 -4z"/>
<path fill="#2e7d32" d="M3948 4913 c-2 -5 -2 -446 0 -981 l2 -972 185 2 185 3 0 975 0 975
-184 3 c-102 1 -186 -1 -188 -5z"/>
<path fill="#2e7d32" d="M6308 4913 c-2 -5 -2 -445 0 -980 l2 -972 186 -3 c102 -2 188 -1 190
1 2 2 4 445 4 983 l0 978 -189 0 c-105 0 -191 -3 -193 -7z"/>
</g>
</svg>
